<?xml version="1.0" encoding="UTF-8"?>
<!DOCTYPE svg PUBLIC "-//W3C//DTD SVG 1.1//EN" "http://www.w3.org/Graphics/SVG/1.1/DTD/svg11.dtd">
<svg xmlns="http://www.w3.org/2000/svg" version="1.1" x="0px" y="0px" viewBox="0 0 512 512" enable-background="new 0 0 512 512" xml:space="preserve" xmlns:xlink="http://www.w3.org/1999/xlink">
<g><path style="opacity:1" fill="#000000" d="M 347.5,-0.5 C 350.167,-0.5 352.833,-0.5 355.5,-0.5C 352.889,3.95074 350.056,8.28407 347,12.5C 345.559,15.155 344.726,17.9883 344.5,21C 346.46,28.5485 348.627,36.0485 351,43.5C 351.779,48.5005 352.112,53.5005 352,58.5C 349.275,65.6161 346.275,72.6161 343,79.5C 340.765,81.2024 338.265,82.2024 335.5,82.5C 335.547,79.4318 336.047,76.4318 337,73.5C 339.751,67.3394 341.917,61.0061 343.5,54.5C 341.369,46.107 339.035,37.7736 336.5,29.5C 337.178,24.1858 337.678,18.8525 338,13.5C 339.86,7.83095 343.027,3.16428 347.5,-0.5 Z"/></g>
<g><path style="opacity:1" fill="#000000" d="M 374.5,-0.5 C 377.5,-0.5 380.5,-0.5 383.5,-0.5C 383.477,1.92668 382.977,4.26001 382,6.5C 379.667,10.1667 377.333,13.8333 375,17.5C 373.079,22.4839 373.079,27.4839 375,32.5C 381.006,43.2243 382.339,54.5576 379,66.5C 377.954,72.2962 374.787,76.2962 369.5,78.5C 367.261,78.4257 366.261,77.259 366.5,75C 368.946,70.2062 370.946,65.2062 372.5,60C 370.812,50.9372 368.312,42.1039 365,33.5C 363.343,22.4598 365.343,12.1264 371,2.5C 372.145,1.36362 373.312,0.363622 374.5,-0.5 Z"/></g>
<g><path style="opacity:1" fill="#000000" d="M 403.5,-0.5 C 406.167,-0.5 408.833,-0.5 411.5,-0.5C 411.313,1.56429 410.813,3.56429 410,5.5C 407.667,8.5 405.333,11.5 403,14.5C 400.008,21.3055 400.175,28.1389 403.5,35C 409.363,43.0664 410.863,51.8997 408,61.5C 406.928,66.3835 405.261,71.0501 403,75.5C 398.696,81.2481 395.529,80.7481 393.5,74C 395.978,67.5456 398.311,61.0456 400.5,54.5C 398.542,47.9229 396.042,41.5896 393,35.5C 391.247,24.5748 392.913,14.2414 398,4.5C 399.406,2.25633 401.239,0.589662 403.5,-0.5 Z"/></g>
<g><path style="opacity:1" fill="#000000" d="M 130.5,511.5 C 127.167,511.5 123.833,511.5 120.5,511.5C 104.371,509.384 94.0379,500.384 89.5,484.5C 90.9102,478.162 91.4102,471.829 91,465.5C 101.206,450.426 109.873,434.426 117,417.5C 127.706,403.432 136.373,388.099 143,371.5C 144.763,368.98 146.763,366.647 149,364.5C 156,351.833 163,339.167 170,326.5C 170.958,323.925 171.458,321.259 171.5,318.5C 165.214,289.67 159.714,260.67 155,231.5C 152.865,224.094 150.531,216.761 148,209.5C 147.002,202.015 146.169,194.515 145.5,187C 145.09,180.135 146.923,173.968 151,168.5C 168.531,151.301 186.365,134.467 204.5,118C 230.929,101.301 259.762,92.4681 291,91.5C 317.457,90.7624 340.79,98.7624 361,115.5C 363.402,118.714 362.902,121.214 359.5,123C 329.829,127.34 310.662,143.84 302,172.5C 300.546,180.786 300.213,189.119 301,197.5C 304.392,205.951 308.059,214.284 312,222.5C 313.691,236.289 314.857,250.123 315.5,264C 315.08,284.459 314.58,304.959 314,325.5C 313.156,337.299 311.49,348.966 309,360.5C 302.475,375.848 291.308,381.014 275.5,376C 268.493,369.993 265.159,362.326 265.5,353C 267.912,344.014 269.079,334.847 269,325.5C 269.667,323.5 270.333,321.5 271,319.5C 271.267,298.812 271.434,278.145 271.5,257.5C 270.001,235.52 268.834,213.52 268,191.5C 267.616,187.347 266.616,183.347 265,179.5C 263.964,181.87 263.464,184.37 263.5,187C 266.41,228.15 268.076,269.316 268.5,310.5C 268.632,318.767 265.298,320.6 258.5,316C 250.961,308.13 243.794,299.963 237,291.5C 231.71,271.003 227.043,250.336 223,229.5C 222.252,227.668 221.252,226.001 220,224.5C 224.158,252.102 229.824,279.436 237,306.5C 239.136,317.753 239.803,329.086 239,340.5C 223.681,367.801 208.347,395.135 193,422.5C 180.796,440.901 170.13,460.234 161,480.5C 154.97,490.203 147.803,499.036 139.5,507C 136.408,508.546 133.408,510.046 130.5,511.5 Z"/></g>
<g><path style="opacity:1" fill="#000000" d="M 353.5,126.5 C 386.46,124.212 408.293,138.545 419,169.5C 424.482,193.042 418.649,213.209 401.5,230C 393.117,237.023 383.45,241.023 372.5,242C 348.653,246.141 329.153,238.974 314,220.5C 308.674,210.192 305.174,199.358 303.5,188C 304.623,154.723 321.289,134.223 353.5,126.5 Z"/></g>
<g><path style="opacity:1" fill="#000000" d="M 375.5,244.5 C 378.649,244.211 381.649,244.711 384.5,246C 388.49,255.122 391.324,264.622 393,274.5C 394.833,289.833 396.667,305.167 398.5,320.5C 397.025,335.94 394.859,351.274 392,366.5C 387.942,375.785 380.775,379.785 370.5,378.5C 367.045,378.579 363.712,378.079 360.5,377C 351.287,369.692 348.12,360.192 351,348.5C 352.921,337.248 354.087,325.915 354.5,314.5C 353.165,302.484 351.665,290.484 350,278.5C 345.101,267.973 341.934,256.973 340.5,245.5C 348.412,245.838 356.245,246.504 364,247.5C 367.965,246.653 371.798,245.653 375.5,244.5 Z"/></g>
<g><path style="opacity:1" fill="#000000" d="M 310.5,511.5 C 301.833,511.5 293.167,511.5 284.5,511.5C 276.853,507.749 271.02,502.082 267,494.5C 266.08,491.899 265.413,489.232 265,486.5C 264.767,474.162 265.1,461.828 266,449.5C 269.728,427.947 272.728,406.28 275,384.5C 275.5,383.333 276.333,382.5 277.5,382C 293.375,383.644 304.541,377.144 311,362.5C 312.802,357.625 314.135,352.625 315,347.5C 316.911,329.551 318.244,311.551 319,293.5C 319.519,292.484 320.353,291.818 321.5,291.5C 323.61,292.054 325.61,292.888 327.5,294C 334.48,300.642 340.313,308.142 345,316.5C 345.564,319.155 346.064,321.821 346.5,324.5C 341.327,379.96 335.16,435.294 328,490.5C 323.843,498.83 318.009,505.83 310.5,511.5 Z"/></g>
</svg>