<?xml version="1.0" encoding="iso-8859-1"?>
<!-- Uploaded to: SVG Repo, www.svgrepo.com, Generator: SVG Repo Mixer Tools -->
<svg fill="#000000" height="800px" width="800px" version="1.1" id="Layer_1" xmlns="http://www.w3.org/2000/svg" xmlns:xlink="http://www.w3.org/1999/xlink" 
	 viewBox="0 0 512 512" xml:space="preserve">
<g>
	<g>
		<g>
			<path d="M59.733,494.8h-51.2c-4.71,0-8.533,3.823-8.533,8.533s3.823,8.533,8.533,8.533h51.2c4.71,0,8.533-3.823,8.533-8.533
				S64.444,494.8,59.733,494.8z"/>
			<path d="M195.422,171.865c-3.985-2.526-9.25-1.357-11.785,2.62l-54.306,85.333c-1.468,2.313-1.741,5.197-0.725,7.748
				c1.015,2.543,3.2,4.446,5.854,5.111c1.442,0.358,36.139,8.789,121.54,8.789c14.976,0,29.449-0.265,43-0.794
				c4.702-0.179,8.371-4.147,8.192-8.849c-0.179-4.71-3.959-8.576-8.858-8.201c-13.329,0.512-27.58,0.776-42.334,0.776
				c-55.475,0-89.148-3.678-105.446-6.135l47.488-74.615C200.568,179.673,199.398,174.399,195.422,171.865z"/>
			<path d="M503.467,494.8H486.4c-4.71,0-8.533,3.823-8.533,8.533s3.823,8.533,8.533,8.533h17.067c4.71,0,8.533-3.823,8.533-8.533
				S508.177,494.8,503.467,494.8z"/>
			<path d="M452.267,494.8H384v-60.126c66.62-3.541,119.219-16.358,121.506-16.922c2.731-0.674,4.949-2.637,5.939-5.265
				c0.998-2.628,0.631-5.572-0.964-7.876l-70.349-101.623c20.787-2.227,30.703-4.574,31.198-4.693
				c2.68-0.64,4.881-2.543,5.914-5.094c1.033-2.56,0.768-5.453-0.708-7.782l-64.649-101.589c16.887-2.372,25.429-5.018,25.865-5.154
				c2.526-0.794,4.54-2.705,5.453-5.18c0.913-2.483,0.631-5.248-0.768-7.484L357.103,29.477c-1.553-2.483-4.275-4.002-7.211-4.011
				h-0.026c-2.918,0-5.641,1.493-7.202,3.959L320.99,63.559c-2.526,3.976-1.348,9.25,2.628,11.776
				c3.985,2.534,9.259,1.348,11.776-2.628l14.413-22.699l71.825,114.918c-5.956,1.143-14.31,2.466-25.079,3.541
				c-2.953,0.29-5.53,2.091-6.827,4.762c-1.297,2.662-1.118,5.811,0.478,8.311l65.101,102.306
				c-7.108,1.075-17.451,2.389-31.181,3.507c-3.038,0.247-5.717,2.099-7.023,4.855c-1.297,2.756-1.033,5.999,0.7,8.508
				l71.416,103.151c-20.412,4.216-64.145,12.109-114.099,14.14c-4.574,0.188-8.183,3.942-8.183,8.525V494.8H332.8v-64
				c0-4.71-3.823-8.533-8.533-8.533s-8.533,3.823-8.533,8.533v64h-25.6v-85.931c86.118-2.961,121.037-16.435,122.641-17.075
				c2.406-0.973,4.25-2.978,4.992-5.47c0.751-2.483,0.333-5.18-1.152-7.313l-70.349-101.623c20.787-2.227,30.703-4.574,31.198-4.693
				c2.679-0.64,4.881-2.543,5.914-5.094c1.033-2.56,0.768-5.453-0.708-7.782L318.02,158.228c16.887-2.372,25.438-5.018,25.865-5.154
				c2.526-0.794,4.54-2.705,5.453-5.18c0.913-2.483,0.632-5.248-0.768-7.484L263.236,3.877c-3.123-4.992-11.349-4.992-14.473,0
				L163.43,140.411c-1.382,2.219-1.681,4.949-0.794,7.407c0.888,2.466,2.85,4.386,5.333,5.214C169.062,153.398,195.576,162,256,162
				c6.127,0,11.904-0.085,17.331-0.256c4.71-0.145,8.414-4.079,8.26-8.789c-0.145-4.719-4.079-8.619-8.789-8.269
				c-5.265,0.162-10.863,0.247-16.802,0.247c-36.045,0-59.392-3.191-71.791-5.564L256,24.502l71.765,114.825
				c-5.956,1.143-14.31,2.466-25.079,3.541c-2.944,0.29-5.53,2.091-6.827,4.762c-1.297,2.662-1.118,5.811,0.478,8.312
				l65.101,102.306c-7.108,1.075-17.451,2.389-31.181,3.507c-3.038,0.247-5.717,2.099-7.023,4.855
				c-1.297,2.756-1.033,5.999,0.7,8.508l71.979,103.97C377.438,383.875,333.611,392.4,256,392.4
				c-77.619,0-121.455-8.525-139.921-13.312l52.412-75.699c2.688-3.874,1.715-9.19-2.159-11.87c-3.883-2.688-9.19-1.715-11.87,2.159
				l-59.076,85.333c-1.485,2.133-1.903,4.83-1.161,7.313c0.751,2.492,2.594,4.497,5,5.47c1.604,0.64,36.523,14.114,122.641,17.075
				V494.8h-25.6v-64c0-4.71-3.823-8.533-8.533-8.533s-8.533,3.823-8.533,8.533v64h-34.133v-68.267c0-4.582-3.61-8.337-8.192-8.525
				c-49.886-2.031-93.67-9.924-114.091-14.14l71.415-103.151c1.732-2.509,1.997-5.751,0.7-8.508
				c-1.306-2.756-3.985-4.608-7.023-4.855c-13.73-1.118-24.064-2.432-31.181-3.507l65.101-102.306
				c1.596-2.5,1.775-5.649,0.478-8.311c-1.297-2.671-3.883-4.471-6.827-4.762c-10.769-1.075-19.132-2.398-25.079-3.541
				l71.825-114.918l14.413,22.699c2.526,3.977,7.782,5.163,11.776,2.628c3.977-2.526,5.154-7.799,2.628-11.776l-21.675-34.133
				c-1.57-2.475-4.642-3.831-7.228-3.959c-2.935,0.009-5.658,1.527-7.211,4.011L69.564,166.011
				c-1.399,2.236-1.681,5.001-0.768,7.484c0.913,2.475,2.927,4.386,5.453,5.18c0.427,0.136,8.977,2.782,25.865,5.154L35.465,285.418
				c-1.476,2.33-1.741,5.222-0.708,7.782c1.033,2.551,3.234,4.454,5.914,5.094c0.495,0.12,10.411,2.466,31.198,4.693L1.519,404.611
				c-1.596,2.304-1.963,5.248-0.964,7.876c0.99,2.628,3.208,4.591,5.939,5.265c2.287,0.563,54.886,13.38,121.506,16.922V494.8
				H93.867c-4.71,0-8.533,3.823-8.533,8.533s3.823,8.533,8.533,8.533h358.4c4.71,0,8.533-3.823,8.533-8.533
				S456.977,494.8,452.267,494.8z M273.067,494.8h-34.133v-85.495c5.53,0.094,11.153,0.162,17.067,0.162
				c5.914,0,11.537-0.068,17.067-0.162V494.8z"/>
		</g>
	</g>
</g>
</svg>