<?xml version="1.0" encoding="iso-8859-1"?>
<!-- Uploaded to: SVG Repo, www.svgrepo.com, Generator: SVG Repo Mixer Tools -->
<svg fill="#000000" height="800px" width="800px" version="1.1" id="Layer_1" xmlns="http://www.w3.org/2000/svg" xmlns:xlink="http://www.w3.org/1999/xlink" 
	 viewBox="0 0 512 512" xml:space="preserve">
<g>
	<g>
		<path d="M206.979,0c-31.535,0-57.192,25.657-57.192,57.192c0,31.535,25.657,57.191,57.192,57.191
			c31.535,0,57.191-25.657,57.191-57.191C264.171,25.657,238.514,0,206.979,0z M206.979,98.043
			c-22.526,0-40.851-18.325-40.851-40.851s18.325-40.851,40.851-40.851c22.526,0,40.851,18.325,40.851,40.851
			S229.505,98.043,206.979,98.043z"/>
	</g>
</g>
<g>
	<g>
		<path d="M228.604,229.914c-22.309-12.975-52.826-29.355-91.117-40.935c-17.761-5.372-36.287-9.462-55.785-12.333v-18.235
			c18.624-3.795,32.681-20.3,32.681-40.029V63.915c0-22.526-18.325-40.851-40.851-40.851c-22.526,0-40.85,18.325-40.85,40.851
			v54.468c0,19.728,14.057,36.233,32.681,40.029v16.143c-18.151-1.985-37.148-2.981-57.191-2.981c-4.513,0-8.17,3.657-8.17,8.17
			s3.657,8.17,8.17,8.17c23.21,0,44.195,1.321,63.52,3.783c0.546,0.126,1.112,0.198,1.694,0.209
			c59.781,7.864,103.489,26.821,147.005,52.131c1.293,0.751,2.705,1.109,4.1,1.109c2.814,0,5.554-1.455,7.07-4.063
			C233.828,237.185,232.505,232.183,228.604,229.914z M49.022,118.383V63.915c0-13.515,10.996-24.511,24.511-24.511
			c13.515,0,24.511,10.996,24.511,24.511v54.468c0,13.515-10.996,24.511-24.511,24.511
			C60.018,142.894,49.022,131.898,49.022,118.383z"/>
	</g>
</g>
<g>
	<g>
		<path d="M503.83,171.574c-20.643,0-39.614,1.059-57.191,2.988v-16.149c18.624-3.795,32.681-20.3,32.681-40.029V63.917
			c0-22.526-18.325-40.851-40.851-40.851s-40.851,18.325-40.851,40.851v54.468c0,19.728,14.057,36.233,32.681,40.029v18.244
			c-31.273,4.616-57.934,12.098-81.702,21.283v-13.241c18.624-3.795,32.681-20.3,32.681-40.029V90.202
			c0-22.526-18.325-40.851-40.851-40.851s-40.851,18.325-40.851,40.851v54.468c0,19.728,14.057,36.233,32.681,40.029v19.995
			c-29.884,13.176-55.385,28.868-80.538,44.347c-62.711,38.593-121.945,75.044-243.547,75.044c-4.513,0-8.17,3.657-8.17,8.17
			s3.657,8.17,8.17,8.17c126.228,0,190.223-39.382,252.112-77.467c26.406-16.25,52.197-32.12,82.285-45.05
			c0.721-0.196,1.402-0.487,2.03-0.861c26.784-11.317,57.021-20.288,94.104-25.142c0.563-0.016,1.111-0.088,1.639-0.212
			c19.184-2.435,40.188-3.778,63.488-3.778c4.513,0,8.17-3.657,8.17-8.17C511.999,175.233,508.344,171.574,503.83,171.574z
			 M340.426,169.181c-13.515,0-24.511-10.996-24.511-24.511V90.202c0-13.515,10.996-24.511,24.511-24.511
			s24.511,10.996,24.511,24.511v54.468C364.937,158.185,353.941,169.181,340.426,169.181z M438.469,142.896
			c-13.515,0-24.511-10.996-24.511-24.511V63.917c0-13.515,10.996-24.511,24.511-24.511s24.511,10.996,24.511,24.511v54.468
			C462.979,131.9,451.983,142.896,438.469,142.896z"/>
	</g>
</g>
<g>
	<g>
		<path d="M72.988,452.085c-4.513,0-8.17,3.657-8.17,8.17v10.894c0,4.513,3.657,8.17,8.17,8.17s8.17-3.657,8.17-8.17v-10.894
			C81.158,455.742,77.501,452.085,72.988,452.085z"/>
	</g>
</g>
<g>
	<g>
		<path d="M307.201,354.043c-4.513,0-8.17,3.657-8.17,8.17v10.894c0,4.513,3.657,8.17,8.17,8.17s8.17-3.657,8.17-8.17v-10.894
			C315.371,357.7,311.714,354.043,307.201,354.043z"/>
	</g>
</g>
<g>
	<g>
		<path d="M437.924,419.404c-4.513,0-8.17,3.657-8.17,8.17v10.894c0,4.513,3.657,8.17,8.17,8.17s8.17-3.657,8.17-8.17v-10.894
			C446.094,423.061,442.437,419.404,437.924,419.404z"/>
	</g>
</g>
<g>
	<g>
		<path d="M405.243,452.085c-4.513,0-8.17,3.657-8.17,8.17v10.894c0,4.513,3.657,8.17,8.17,8.17s8.17-3.657,8.17-8.17v-10.894
			C413.413,455.742,409.756,452.085,405.243,452.085z"/>
	</g>
</g>
<g>
	<g>
		<path d="M138.349,484.766c-4.513,0-8.17,3.657-8.17,8.17v10.894c0,4.513,3.657,8.17,8.17,8.17c4.513,0,8.17-3.657,8.17-8.17
			v-10.894C146.52,488.423,142.863,484.766,138.349,484.766z"/>
	</g>
</g>
</svg>