<?xml version="1.0" encoding="iso-8859-1"?>
<!-- Uploaded to: SVG Repo, www.svgrepo.com, Generator: SVG Repo Mixer Tools -->
<svg fill="#000000" height="800px" width="800px" version="1.1" id="Layer_1" xmlns="http://www.w3.org/2000/svg" xmlns:xlink="http://www.w3.org/1999/xlink" 
	 viewBox="0 0 511.999 511.999" xml:space="preserve">
<g>
	<g>
		<path d="M368.078,286.256l26.815-40.076l102.146,152.657c1.575,2.355,4.162,3.628,6.798,3.628c1.562,0,3.141-0.448,4.536-1.381
			c3.75-2.51,4.756-7.583,2.247-11.334L401.683,226.945c-1.517-2.266-4.063-3.626-6.79-3.626c-2.727,0-5.275,1.361-6.79,3.626
			l-29.855,44.619l-95.457-142.661c-1.518-2.267-4.063-3.626-6.79-3.626c-2.727,0-5.274,1.361-6.79,3.626l-95.459,142.661
			l-29.855-44.619c-1.516-2.266-4.063-3.626-6.79-3.626c-2.727,0-5.274,1.361-6.79,3.626L1.382,389.75
			c-2.509,3.751-1.503,8.825,2.247,11.334c1.395,0.934,2.974,1.381,4.536,1.381c2.635,0,5.222-1.272,6.798-3.628l102.145-152.656
			l26.815,40.075L1.38,499.284c-2.509,3.751-1.503,8.825,2.247,11.334s8.825,1.503,11.334-2.247L256,148.137l95.4,142.577
			c0.014,0.023,0.031,0.045,0.045,0.068l145.593,217.589c1.575,2.355,4.162,3.628,6.798,3.628c1.562,0,3.141-0.448,4.536-1.381
			c3.75-2.51,4.756-7.583,2.247-11.334L368.078,286.256z"/>
	</g>
</g>
<g>
	<g>
		<path d="M390.845,379.331c-3.19-3.192-8.363-3.191-11.555,0l-8.909,8.909l-32.35-32.349c-3.192-3.191-8.364-3.191-11.555,0
			l-32.35,32.351l-32.35-32.351c-3.192-3.191-8.364-3.19-11.555,0l-32.351,32.351l-32.351-32.351c-3.191-3.191-8.364-3.191-11.554,0
			l-32.351,32.351l-8.91-8.91c-3.191-3.191-8.364-3.191-11.554,0c-3.191,3.191-3.191,8.364,0,11.554l14.687,14.687
			c3.191,3.191,8.364,3.191,11.554,0l32.351-32.351l32.351,32.351c3.191,3.191,8.364,3.191,11.554,0L256,373.221l32.35,32.351
			c1.596,1.595,3.688,2.393,5.778,2.393s4.182-0.797,5.778-2.393l32.35-32.351l32.35,32.351c1.533,1.533,3.61,2.393,5.778,2.393
			c2.168,0,4.244-0.861,5.778-2.393l14.686-14.687C394.037,387.694,394.037,382.521,390.845,379.331z"/>
	</g>
</g>
<g>
	<g>
		<path d="M394.893,0.001h-168.85c-4.512,0-8.17,3.658-8.17,8.17c0,4.512,3.658,8.17,8.17,8.17h168.85
			c10.511,0,19.064,8.553,19.064,19.064c0,10.511-8.553,19.064-19.064,19.064H256c-4.512,0-8.17,3.658-8.17,8.17
			c0,10.511-8.553,19.064-19.064,19.064H35.405c-10.511,0-19.064-8.553-19.064-19.064c0-10.511,8.551-19.064,19.064-19.064h108.936
			c4.512,0,8.17-3.658,8.17-8.17c0-10.511,8.552-19.064,19.064-19.064h21.787c4.512,0,8.17-3.658,8.17-8.17
			c0-4.512-3.658-8.17-8.17-8.17h-21.787c-16.711,0-30.755,11.638-34.452,27.234H35.405c-19.521,0-35.404,15.883-35.404,35.404
			c0,19.521,15.882,35.404,35.404,35.404h193.361c16.711,0,30.755-11.638,34.453-27.234h131.674
			c19.522,0,35.404-15.883,35.404-35.404C430.297,15.883,414.416,0.001,394.893,0.001z"/>
	</g>
</g>
<g>
	<g>
		<path d="M476.595,92.596H362.213c-19.522,0-35.404,15.883-35.404,35.404s15.882,35.404,35.404,35.404h114.383
			c19.522,0,35.404-15.883,35.404-35.404S496.117,92.596,476.595,92.596z M476.595,147.064H362.213
			c-10.511,0-19.064-8.552-19.064-19.064s8.553-19.064,19.064-19.064h114.383c10.511,0,19.064,8.552,19.064,19.064
			S487.106,147.064,476.595,147.064z"/>
	</g>
</g>
<g>
	<g>
		<path d="M108.937,446.092c-4.512,0-8.17,3.658-8.17,8.17v10.894c0,4.512,3.658,8.17,8.17,8.17c4.512,0,8.17-3.658,8.17-8.17
			v-10.894C117.107,449.75,113.449,446.092,108.937,446.092z"/>
	</g>
</g>
<g>
	<g>
		<path d="M403.063,446.092c-4.513,0-8.17,3.658-8.17,8.17v10.894c0,4.512,3.657,8.17,8.17,8.17c4.513,0,8.17-3.658,8.17-8.17
			v-10.894C411.234,449.75,407.576,446.092,403.063,446.092z"/>
	</g>
</g>
<g>
	<g>
		<path d="M179.745,424.305c-4.512,0-8.17,3.658-8.17,8.17v10.894c0,4.512,3.658,8.17,8.17,8.17c4.512,0,8.17-3.658,8.17-8.17
			v-10.894C187.915,427.963,184.257,424.305,179.745,424.305z"/>
	</g>
</g>
</svg>